<?xml version="1.0" encoding="UTF-8"?>
<svg version="1.1" xmlns="http://www.w3.org/2000/svg" width="1280" height="1280">
<path d="M0 0 C0 108.9 0 217.8 0 330 C-5.94 330.33 -11.88 330.66 -18 331 C-37.97069858 335.18740454 -54.81114255 344.37910999 -66.65234375 361.37109375 C-77.76639363 379.04610947 -81.09010053 397.61702258 -77 418 C-74.83762402 426.03915585 -71.38113216 433.44509244 -67.8203125 440.9375 C-67.26742554 442.10635742 -67.26742554 442.10635742 -66.70336914 443.29882812 C-65.80382694 445.19996755 -64.90213655 447.10009028 -64 449 C-95.11764082 449.09136241 -126.23524599 449.16209639 -157.35298921 449.20426132 C-161.03146894 449.2092638 -164.7099484 449.21444113 -168.38842773 449.21972656 C-169.12070893 449.2207758 -169.85299013 449.22182505 -170.60746167 449.22290608 C-182.44539726 449.24028433 -194.2832547 449.2718077 -206.12114402 449.30861118 C-218.27900533 449.34609261 -230.43682588 449.36825103 -242.5947426 449.37635398 C-250.08944619 449.38182688 -257.58392884 449.39907652 -265.07856438 449.43166587 C-270.83735813 449.45542289 -276.5960121 449.45780175 -282.35484505 449.45243073 C-284.70856964 449.45352701 -287.06230297 449.4614279 -289.41597748 449.4768219 C-312.20413922 449.61849749 -312.20413922 449.61849749 -323 445 C-324.82724609 444.24009766 -324.82724609 444.24009766 -326.69140625 443.46484375 C-335.03364113 439.02700179 -341.41060457 433.66353771 -348 427 C-348.80308594 426.20722656 -349.60617187 425.41445313 -350.43359375 424.59765625 C-365.69344726 408.70307746 -373.69511514 386.99745502 -379 366 C-379.18079102 365.28666504 -379.36158203 364.57333008 -379.54785156 363.83837891 C-382.27954599 352.33322055 -382.30537807 340.63537933 -382.375 328.875 C-382.3830365 328.11840088 -382.391073 327.36180176 -382.39935303 326.58227539 C-382.51314104 312.4449773 -380.85678436 298.73412451 -376.625 285.1875 C-376.30366089 284.1348999 -376.30366089 284.1348999 -375.97583008 283.06103516 C-371.35246585 268.26559296 -364.68513759 254.29131311 -355.125 242.0625 C-354.64853027 241.45293457 -354.17206055 240.84336914 -353.68115234 240.21533203 C-352.50703648 238.76569705 -351.25948952 237.37610892 -350 236 C-349.34 236 -348.68 236 -348 236 C-347.67708984 235.16855469 -347.67708984 235.16855469 -347.34765625 234.3203125 C-337.55724168 217.46377263 -311.68527437 208.01624811 -293.89428711 203.27001953 C-283.41544698 200.65246008 -272.74850613 199.77871669 -262 199 C-261.87625 198.21882812 -261.7525 197.43765625 -261.625 196.6328125 C-254.65030794 157.48735331 -236.77703194 120.90201361 -212 90 C-211.35353516 89.1853125 -210.70707031 88.370625 -210.04101562 87.53125 C-197.01725739 71.32602475 -182.06655932 56.88103225 -165 45 C-164.04601318 44.32686768 -164.04601318 44.32686768 -163.07275391 43.64013672 C-158.79142084 40.63493845 -154.43801605 37.76819788 -150 35 C-149.39961914 34.62423828 -148.79923828 34.24847656 -148.18066406 33.86132812 C-116.72955717 14.48355057 -79.4574962 4.68390964 -43 1 C-41.12828125 0.80277344 -41.12828125 0.80277344 -39.21875 0.6015625 C-26.17974472 -0.50495859 -13.06585357 0 0 0 Z " fill="#FFFFFF" transform="translate(560,311)"/>
<path d="M0 0 C1.62371029 -0.00456866 3.24741866 -0.00987626 4.87112427 -0.0158844 C8.26523724 -0.0247899 11.6591146 -0.02242234 15.05322266 -0.01245117 C19.37938691 -0.00097351 23.70473341 -0.0211671 28.03079033 -0.05036831 C31.38193841 -0.06881275 34.73289358 -0.0684214 38.08407974 -0.06273079 C39.67791006 -0.06257853 41.27175427 -0.06854287 42.86553574 -0.08102226 C53.32873764 -0.15141108 61.66427423 0.6945495 70.6328125 6.55859375 C77.03693613 13.25381391 80.50862956 20.07880995 80.50586033 29.33079815 C80.50701417 30.03999988 80.50816802 30.74920162 80.50935683 31.47989431 C80.51201966 33.87437067 80.50750404 36.2687808 80.50306702 38.66325378 C80.50350279 40.39000966 80.5043778 42.11676548 80.50565618 43.84352094 C80.50790001 48.60260914 80.50388137 53.36167497 80.49887812 58.12076032 C80.49457222 63.24754486 80.49602015 68.37432806 80.4967804 73.50111389 C80.49730554 82.38830554 80.49415971 91.27548987 80.48854256 100.16267967 C80.4804263 113.01217166 80.47781221 125.8616601 80.47655457 138.71115438 C80.47436425 159.55703136 80.4677047 180.40290444 80.45825195 201.2487793 C80.44907732 221.50235983 80.44199674 241.7559393 80.43774414 262.00952148 C80.43748142 263.25729747 80.43721869 264.50507345 80.43694801 265.79066082 C80.435643 272.0501907 80.43437929 278.30972058 80.43313611 284.56925046 C80.42276411 336.52403426 80.40514634 388.47881381 80.3828125 440.43359375 C81.03490189 440.4247113 81.68699127 440.41582886 82.35884094 440.40667725 C89.18908866 440.31769831 96.01916983 440.25765081 102.84985352 440.21386719 C105.39386694 440.1938394 107.93783485 440.16660911 110.48168945 440.13183594 C114.15327233 440.08292945 117.82424283 440.06053555 121.49609375 440.04296875 C122.62050369 440.02232361 123.74491364 440.00167847 124.90339661 439.98040771 C135.24712588 439.97751489 144.04660526 442.22985897 151.6640625 449.50390625 C157.63645312 456.20927208 160.67048399 462.97994262 160.8203125 471.99609375 C160.86027344 473.29675781 160.90023438 474.59742188 160.94140625 475.9375 C160.05025368 488.61754062 150.67766965 502.15459019 145.10400391 513.31347656 C144.06014639 515.41046279 143.01660118 517.5076045 141.9733429 519.60488892 C139.15291349 525.2718411 136.32725532 530.93616945 133.49995089 536.59969425 C131.73175861 540.14196023 129.96449994 543.68469048 128.19752121 547.22756195 C123.29506581 557.05681896 118.3911184 566.88532826 113.48163795 576.71107864 C113.01199116 577.65103094 113.01199116 577.65103094 112.53285655 578.60997216 C112.21906583 579.23799016 111.90527511 579.86600815 111.58197558 580.51305699 C110.94624946 581.78539613 110.31052583 583.05773651 109.67480469 584.33007812 C109.20180654 585.27673871 109.20180654 585.27673871 108.71925287 586.24252376 C103.60374539 596.48144443 98.49908045 606.72572962 93.39902587 616.9723548 C88.14992118 627.5180488 82.89178175 638.05919695 77.62460649 648.59587741 C74.67252622 654.50186688 71.72455496 660.40984523 68.78606033 666.32260895 C66.02393548 671.87983538 63.25039148 677.43121132 60.46805382 682.97834396 C59.45087259 685.011167 58.43777069 687.04603732 57.42912865 689.08311081 C56.04819684 691.87046234 54.652537 694.64995243 53.25308228 697.42803955 C52.8605513 698.22921432 52.46802032 699.03038908 52.06359446 699.85584188 C46.8795909 710.04572695 40.26104888 716.58088503 29.3828125 720.43359375 C18.55067751 722.72188227 10.23249064 720.88904274 0.83984375 715.359375 C-5.42435413 710.44959828 -9.07958209 704.23311414 -12.54597473 697.184021 C-13.00367003 696.2736081 -13.46136532 695.3631952 -13.93293017 694.42519403 C-15.45545762 691.39066836 -16.96363977 688.34924431 -18.47192383 685.30761719 C-19.56391529 683.12386108 -20.65678252 680.94054271 -21.75045776 678.75762939 C-24.40449661 673.45465952 -27.04930481 668.14714901 -29.68994162 662.8374984 C-32.76608225 656.65330299 -35.85324692 650.47463396 -38.94098362 644.29622248 C-44.44838884 633.27535517 -49.94656964 622.24991254 -55.43920898 611.22167969 C-60.76942521 600.51959956 -66.10497364 589.82020285 -71.44702148 579.12402344 C-71.77643625 578.46444569 -72.10585101 577.80486795 -72.44524805 577.125303 C-73.76935716 574.47411046 -75.09348109 571.82292531 -76.41763007 569.17175268 C-82.12453032 557.74522433 -87.82702014 546.31649463 -93.52894565 534.88748324 C-94.45230287 533.0367872 -95.37576535 531.18614372 -96.2992537 529.33551311 C-99.80314852 522.31360749 -103.30486021 515.29061911 -106.80327988 508.26598358 C-107.86485597 506.13509601 -108.92710445 504.00454326 -109.99006081 501.87434387 C-111.4363508 498.97556719 -112.88017497 496.07557605 -114.32331848 493.17523193 C-114.74820818 492.32495477 -115.17309788 491.47467762 -115.61086303 490.59863448 C-115.99581079 489.82366441 -116.38075856 489.04869434 -116.77737141 488.25024033 C-117.1109309 487.58079069 -117.4444904 486.91134105 -117.78815776 486.22160506 C-121.0364106 479.21593017 -120.76539291 469.02641539 -118.8984375 461.55859375 C-117.95548202 459.36850361 -116.90940201 457.43525937 -115.6171875 455.43359375 C-115.05644531 454.48613281 -115.05644531 454.48613281 -114.484375 453.51953125 C-110.02404263 446.57795439 -104.29797703 443.28585625 -96.48760986 441.04232788 C-91.35659117 439.9541862 -86.27108784 440.06759878 -81.046875 440.140625 C-79.88463409 440.14486984 -78.72239319 440.14911469 -77.52493286 440.15348816 C-73.84710597 440.17015449 -70.16984614 440.20778481 -66.4921875 440.24609375 C-63.98438297 440.26115613 -61.47656976 440.2748418 -58.96875 440.28710938 C-52.8513721 440.32001849 -46.73432033 440.37009659 -40.6171875 440.43359375 C-40.61832666 439.13479426 -40.61832666 439.13479426 -40.61948884 437.8097564 C-40.66424146 386.4956201 -40.69855885 335.18148587 -40.71931816 283.86733396 C-40.72181958 277.70647781 -40.72440823 271.54562171 -40.72705078 265.38476562 C-40.7275754 264.15824606 -40.72810002 262.93172649 -40.72864054 261.66803966 C-40.73734401 241.80638664 -40.75311367 221.94474518 -40.77149309 202.08309902 C-40.79019375 181.70440783 -40.80130458 161.3257227 -40.80536449 140.94702327 C-40.8081092 128.371512 -40.81677937 115.79603343 -40.83302043 103.22053222 C-40.84358934 94.59795896 -40.84678833 85.97540261 -40.84419025 77.35282333 C-40.84290883 72.37750738 -40.84487835 67.40224862 -40.85559845 62.42694283 C-40.86534659 57.86941436 -40.86581222 53.31198142 -40.85898529 48.75444852 C-40.85814179 47.10824996 -40.86066555 45.46204538 -40.86695386 43.81585862 C-40.91260015 31.12541136 -40.74292 19.84244135 -32.6171875 9.43359375 C-23.12569776 0.11859865 -12.50036823 -0.03086215 0 0 Z " fill="#3483E3" transform="translate(639.6171875,239.56640625)"/>
<path d="M0 0 C2.18396488 1.75041284 4.34654273 3.52475069 6.5 5.3125 C7.37398437 6.03179687 8.24796875 6.75109375 9.1484375 7.4921875 C13.1568687 10.88177319 13.1568687 10.88177319 14.5 12.3125 C14.5 12.9725 14.5 13.6325 14.5 14.3125 C15.16 14.3125 15.82 14.3125 16.5 14.3125 C19.04697059 16.77264205 21.22212069 19.6043546 23.5 22.3125 C24.25796875 23.16070312 25.0159375 24.00890625 25.796875 24.8828125 C49.63915298 52.14197745 60.54237877 85.41890878 58.5 121.3125 C57.06304197 137.84084365 50.15039931 152.82653681 42.5 167.3125 C43.9540625 167.44205078 43.9540625 167.44205078 45.4375 167.57421875 C68.58796528 169.88751499 89.00575733 178.40319934 104 196.6875 C121.74797493 219.38832729 126.03575883 249.23941144 123.19970703 277.28173828 C120.32982155 297.66340903 112.50895926 316.77421477 96.5 330.3125 C88.61975708 335.62842256 79.89056485 336.61364177 70.61645508 336.55300903 C69.64998487 336.55471788 68.68351467 336.55642673 67.68775749 336.55818737 C64.46493882 336.56146893 61.24233059 336.55050051 58.01953125 336.53955078 C55.70310979 336.53898638 53.38668797 336.53930379 51.07026672 336.54043579 C44.79198363 336.54100917 38.5137771 336.52925712 32.23551178 336.51528788 C25.67052092 336.50277816 19.10552828 336.50160982 12.54052734 336.49923706 C1.52488886 336.49406195 -9.49072284 336.48123977 -20.50634766 336.46337891 C-31.84977071 336.44500573 -43.19318615 336.43085627 -54.53662109 336.42236328 C-55.23646327 336.42183783 -55.93630544 336.42131239 -56.65735495 336.42077102 C-60.16844657 336.41816084 -63.67953825 336.41563345 -67.19062996 336.41314721 C-96.29377153 336.39243199 -125.39688539 336.35707235 -154.5 336.3125 C-153.39568064 332.94791252 -152.3223487 329.71836907 -150.6953125 326.5703125 C-140.94526963 307.18998885 -136.59710165 287.09936626 -143.17578125 265.83984375 C-149.93794966 247.82734205 -161.07863651 233.09784473 -178.5 224.3125 C-192.61259678 218.03830365 -203.57228677 217.19737296 -219.5 216.3125 C-219.5 137.1125 -219.5 57.9125 -219.5 -23.6875 C-218.84 -23.6875 -218.18 -23.6875 -217.5 -23.6875 C-216.12278938 -21.67147199 -214.87890757 -19.67036775 -213.65625 -17.5625 C-213.28649048 -16.94101074 -212.91673096 -16.31952148 -212.5357666 -15.67919922 C-210.9476279 -13.00934316 -209.37680866 -10.32941332 -207.80419922 -7.65039062 C-206.65657198 -5.7008926 -205.50042823 -3.7566368 -204.34375 -1.8125 C-203.81086365 -0.89380127 -203.81086365 -0.89380127 -203.26721191 0.04345703 C-202.3996995 1.50058471 -201.45657101 2.91222476 -200.5 4.3125 C-198.45534687 4.53940347 -198.45534687 4.53940347 -197.23046875 3.1328125 C-196.72128906 2.57335937 -196.21210937 2.01390625 -195.6875 1.4375 C-143.16245495 -52.39251511 -55.52874029 -43.60461096 0 0 Z " fill="#FFFFFF" transform="translate(978.5,424.6875)"/>
</svg>
