<svg width="64" height="64" viewBox="0 0 64 64" fill="none" xmlns="http://www.w3.org/2000/svg">
<path d="M26.17 36.324L31.572 47.126C32.16 48.304 33.84 48.304 34.428 47.126L39.828 36.324C40.36 35.262 39.586 34.012 38.4 34.012H36V13.5C36 12.672 35.328 12 34.5 12H31.5C30.672 12 30 12.672 30 13.5V34.014H27.6C26.412 34.014 25.64 35.264 26.17 36.324Z" fill="#3584E4"/>
<path d="M52.924 38H41.228L41.618 37.22C42.18 36.098 42.12 34.788 41.46 33.72C40.8 32.652 39.656 32.014 38.4 32.014H38V20.072L38.924 21.576C44.924 15.576 54.924 23.636 50.924 29.636C56.458 29.804 55.78 37.698 52.924 38ZM24.382 37.22C23.82 36.096 23.88 34.788 24.54 33.72C25.2 32.652 26.344 32.014 27.6 32.014H27.994L27.97 15.59C20.54 15.272 16.02 20.066 14.926 25.528C6.58002 25.856 7.90002 37.704 12.926 37.998H24.772L24.382 37.22Z" fill="#191C24"/>
</svg>
